<?xml version="1.0" standalone="no"?> <!DOCTYPE svg PUBLIC "-//W3C//DTD SVG 1.0//EN" "http://www.w3.org/TR/2001/REC-SVG-20010904/DTD/svg10.dtd" > <svg xmlns="http://www.w3.org/2000/svg" width="100%" height="100%">
<defs >
<font id="dffd" horiz-adv-x="425" ><font-face
    font-family="Officina Serif OS ITC TT"
    units-per-em="1000"
    panose-1="0 0 7 0 0 0 0 0 0 0"
    ascent="955"
    descent="-263"
    alphabetic="0" />
<missing-glyph horiz-adv-x="500" d="M63 0V745H438V0H63ZM125 63H375V683H125V63Z" />
<glyph unicode=" " glyph-name="space" horiz-adv-x="206" />
<glyph unicode="!" glyph-name="exclam" horiz-adv-x="352" d="M249 685L248 676L226 273Q225 260 222 257T205 253H145Q132 253 129 256T124 273L101 683Q101 697 121 697H228Q250 697 249 685ZM261 57Q261 23 237 -2T177 -27Q142 -27 117 -2T92 58Q92 93 117
117T178 142Q212 142 236 117T261 57Z" />
<glyph unicode="&quot;" glyph-name="quotedbl" horiz-adv-x="537" d="M425 664L404 433Q402 414 383 414H341Q328 414 325 417T320 433L299 664Q298 669 298 674Q298 686 319 686H405Q425 686 425 673V664ZM240 673Q240 671 239 664L219 433Q217 414 198 414H156Q143
414 140 417T135 433L114 664Q113 668 113 673Q113 686 133 686H220Q240 686 240 673Z" />
<glyph unicode="#" glyph-name="numbersign" horiz-adv-x="537" d="M492 399Q492 379 471 379H411L393 211H444Q458 211 461 208T465 190V137Q465 124 462 120T444 116H384L365 -61Q363 -80 344 -80H296Q285 -80 281 -77T276 -64V-58L295 116H194L175 -61Q173
-80 154 -80H106Q86 -80 86 -67Q86 -65 87 -58L105 116H66Q52 116 49 119T45 137V190Q45 204 49 207T66 211H115L133 379H93Q79 379 76 382T72 399V456Q72 476 93 476H143L160 639Q162 658 181 658H229Q249 658 249 644V636L232 476H332L350 639Q352 658 371 658H418Q440
658 439 645L438 636L421 476H471Q492 476 492 456V399ZM322 379H222L204 211H305L322 379Z" />
<glyph unicode="$" glyph-name="dollar" horiz-adv-x="537" d="M476 185Q476 107 429 55T300 -11V-55Q300 -69 297 -72T279 -76H259Q246 -76 242 -73T238 -55V-13Q173 -8 119 9T64 43L65 52L95 136Q98 144 104 144Q109 144 125 136Q189 103 238 99V294Q147 333
118 358Q62 406 62 488Q62 651 238 676V727Q238 741 242 744T259 748H279Q293 748 296 745T300 727V678Q357 675 407 657T457 621Q457 613 454 610L423 542Q419 534 414 534Q410 534 394 543Q350 567 300 572V388Q394 344 427 310Q476 259 476 185ZM245 411V574Q176
558 176 496Q176 443 245 411ZM361 179Q361 237 293 271V96Q361 112 361 179Z" />
<glyph unicode="%" glyph-name="percent" horiz-adv-x="833" d="M787 166Q787 81 746 33T630 -15Q561 -15 521 31T481 157Q481 241 523 290T638 340Q705 340 746 293T787 166ZM604 664Q604 659 601 652L319 -22Q311 -40 296 -40H245Q224 -40 224 -29Q224 -25 228
-15L510 662Q516 677 533 677H584Q604 677 604 664ZM353 488Q353 403 312 355T196 307Q127 307 87 353T47 480Q47 564 89 613T204 663Q272 663 312 615T353 488ZM692 159Q692 266 633 266Q578 266 578 164Q578 59 635 59Q692 59 692 159ZM258 482Q258 589 199 589Q144
589 144 488Q144 381 201 381Q258 381 258 482Z" />
<glyph unicode="&amp;" glyph-name="ampersand" horiz-adv-x="611" d="M605 39Q605 33 595 25L544 -18Q537 -24 530 -24Q524 -24 515 -14L460 48Q381 -26 267 -26Q163 -26 102 25T40 165Q40 227 71 270T185 365Q131 429 112 464T93 537Q93 608 150 657T289 707Q368
707 418 663T468 548Q468 494 440 452T341 354L448 227Q473 274 480 350Q481 361 489 361Q492 361 499 359L573 339Q585 336 585 324Q585 292 567 237T525 140L596 54Q605 43 605 39ZM348 540Q348 611 282 611Q251 611 231 591T211 540Q211 512 230 484Q235 476
269 436Q272 433 280 423Q348 483 348 540ZM385 134L249 294Q173 244 173 180Q173 137 202 109T275 80Q337 80 385 134Z" />
<glyph unicode="&apos;" glyph-name="quotesingle" horiz-adv-x="352" d="M240 673Q240 671 239 664L219 433Q217 414 198 414H156Q143 414 140 417T135 433L114 664Q113 668 113 673Q113 686 133 686H220Q240 686 240 673Z" />
<glyph unicode="(" glyph-name="parenleft" horiz-adv-x="445" d="M406 -215Q406 -223 398 -228L346 -260Q341 -263 335 -263Q318 -263 242 -148Q117 41 117 244Q117 358 150 456T262 666Q321 751 335 751Q344 751 381 727Q406 711 406 703Q406 696 398 685Q333
593 298 509Q248 390 248 244Q248 122 283 19T398 -197Q406 -208 406 -215Z" />
<glyph unicode=")" glyph-name="parenright" horiz-adv-x="445" d="M328 244Q328 130 295 32T183 -178Q124 -263 110 -263Q100 -263 64 -239Q39 -222 39 -215Q39 -208 47 -197Q108 -113 147 -21Q197 99 197 244Q197 407 133 541Q93 623 45 687Q39 696 39 703Q39
710 47 716L100 748Q105 751 110 751Q127 751 203 636Q328 447 328 244Z" />
<glyph unicode="*" glyph-name="asterisk" horiz-adv-x="537" d="M459 513Q459 504 440 501L316 484L405 396Q414 387 414 382Q414 375 403 367L351 329Q341 322 336 322Q330 322 323 336L268 449L212 337Q205 323 199 323Q194 323 184 330L132 368Q121 376 121
382Q121 388 130 397L220 484L96 502Q78 505 78 514Q78 518 81 527L101 588Q107 605 114 605Q117 605 128 599L238 540L217 669Q216 671 216 675Q216 686 237 686H301Q321 686 321 674L320 663L298 540L409 598Q419 603 423 603Q431 603 436 587L456 526Q459 517
459 513Z" />
<glyph unicode="+" glyph-name="plus" horiz-adv-x="537" d="M496 223Q496 211 492 209T479 206H320V46Q320 34 316 32T303 29H235Q223 29 221 33T218 46V206H58Q46 206 44 210T41 223V291Q41 303 45 305T58 308H218V467Q218 479 222 481T235 484H303Q315 484
317 480T320 467V308H479Q491 308 493 304T496 291V223Z" />
<glyph unicode="," glyph-name="comma" horiz-adv-x="297" d="M247 114Q247 108 242 100L123 -124Q116 -138 109 -138Q106 -138 97 -135L59 -122Q43 -117 43 -108Q43 -106 46 -96L108 108Q113 125 131 125H227Q247 125 247 114Z" />
<glyph unicode="-" glyph-name="hyphen" horiz-adv-x="371" d="M331 216Q331 202 328 199T310 196H60Q46 196 43 199T39 216V295Q39 309 42 312T60 315H310Q331 315 331 295V216Z" />
<glyph unicode="." glyph-name="period" horiz-adv-x="296" d="M243 79Q243 39 216 12T148 -16Q108 -16 81 12T53 80Q53 119 81 146T150 174Q188 174 215 146T243 79Z" />
<glyph unicode="/" glyph-name="slash" horiz-adv-x="445" d="M405 734Q405 730 402 721L77 -245Q71 -263 50 -263H-8Q-28 -263 -28 -250Q-28 -248 -25 -239L301 728Q307 746 328 746H387Q405 746 405 734Z" />
<glyph unicode="0" glyph-name="zero" horiz-adv-x="537" d="M506 299Q506 146 444 65T265 -17Q158 -17 95 67T31 292Q31 443 97 528T279 614Q385 614 445 531T506 299ZM377 285Q377 402 352 454T271 507Q214 507 188 449Q160 386 160 294Q160 202 189 142Q214
90 269 90Q377 90 377 285Z" />
<glyph unicode="1" glyph-name="one" horiz-adv-x="537" d="M437 21Q437 7 434 4T416 0H123Q109 0 106 3T102 21V72Q102 86 106 89T123 93H218V444L141 398Q131 392 126 392Q121 392 113 405L87 450Q83 457 83 463Q83 471 94 479L254 595H323Q344 595 344 575V93H416Q430
93 433 90T437 72V21Z" />
<glyph unicode="2" glyph-name="two" horiz-adv-x="537" d="M474 435Q474 365 434 315Q416 292 398 278T314 225Q253 188 234 167T213 112H447Q461 112 464 109T468 91V21Q468 8 465 4T447 0H87Q73 0 73 14V22Q73 116 100 167Q138 239 250 309Q318 351 331 367Q353
392 353 428Q353 503 271 503Q235 503 213 484T171 417Q165 402 156 402Q153 402 145 405L81 429Q69 434 69 444Q69 461 85 493T122 549Q179 614 283 614Q369 614 421 565T474 435Z" />
<glyph unicode="3" glyph-name="three" horiz-adv-x="537" d="M464 117Q464 23 393 -36Q330 -89 235 -89Q148 -89 74 -56Q45 -43 45 -34Q45 -31 47 -24L67 48Q70 57 78 57Q82 57 88 54Q165 17 224 17Q335 17 335 124Q335 224 209 224H179Q166 224 162 228T158
245V311Q158 325 162 328T179 332H211Q261 332 284 349Q319 375 319 426Q319 463 297 486T237 509Q188 509 147 458Q139 448 134 448Q129 448 125 452L70 502Q65 507 65 512Q65 523 86 546Q147 614 244 614Q332 614 386 565T441 436Q441 333 346 287Q464 249 464
117Z" />
<glyph unicode="4" glyph-name="four" horiz-adv-x="537" d="M499 64Q499 51 496 47T478 43H421V-86Q421 -100 418 -103T400 -107H317Q304 -107 300 -104T296 -86V43H51Q37 43 34 46T30 63V168L279 585Q287 598 293 598Q297 598 306 594L366 568Q381 561 381 555Q381
550 375 540L142 144H298L311 305Q312 318 315 321T332 325H400Q414 325 417 322T421 304V141H478Q492 141 495 137T499 117V64Z" />
<glyph unicode="5" glyph-name="five" horiz-adv-x="537" d="M486 155Q486 45 415 -22T226 -89Q149 -89 79 -62Q61 -55 61 -43Q61 -37 62 -32L76 41Q78 49 84 49Q88 49 93 47Q161 21 220 21Q288 21 328 57T369 153Q369 259 269 259Q208 259 169 213Q161 204 155
204Q155 204 145 207L85 225Q69 230 69 239Q69 244 70 249L101 578Q102 591 105 594T122 597H415Q429 597 432 594T436 576V511Q436 498 433 495T415 491H209L191 333Q234 362 294 362Q379 362 432 305T486 155Z" />
<glyph unicode="6" glyph-name="six" horiz-adv-x="537" d="M488 236Q488 118 431 51T273 -17Q169 -17 114 58T59 278Q59 464 139 575T353 686Q392 686 424 676T457 653Q457 649 455 644L434 574Q432 566 426 566Q424 566 419 568Q384 581 355 581Q227 581 188
416Q240 468 305 468Q360 468 403 438T467 357T488 236ZM367 231Q367 363 280 363Q191 363 191 229Q191 93 276 93Q319 93 343 129T367 231Z" />
<glyph unicode="7" glyph-name="seven" horiz-adv-x="537" d="M464 537L241 -72Q235 -88 226 -88Q227 -88 216 -86L130 -71Q112 -68 112 -58Q112 -55 116 -45L328 483H82Q61 483 61 503V576Q61 590 65 593T82 597H443Q457 597 460 594T464 576V537Z" />
<glyph unicode="8" glyph-name="eight" horiz-adv-x="537" d="M501 177Q501 111 454 57Q390 -17 264 -17Q159 -17 100 30Q32 85 32 174Q32 300 174 352Q57 403 57 511Q57 585 117 635T268 686Q357 686 416 636T476 511Q476 415 362 354Q501 294 501 177ZM350 497Q350
535 327 559T266 583Q230 583 207 560T183 499Q183 465 202 443T271 399Q350 433 350 497ZM375 181Q375 242 320 275Q301 286 261 304Q158 255 158 181Q158 138 187 112T266 86Q314 86 344 112T375 181Z" />
<glyph unicode="9" glyph-name="nine" horiz-adv-x="537" d="M477 319Q477 130 397 21T178 -89Q139 -89 112 -82T84 -63V-53L98 17Q100 27 108 27Q113 27 119 25Q147 16 183 16Q310 16 350 188Q296 129 230 129Q161 129 113 174Q48 235 48 368Q48 480 106 547T263
614Q367 614 422 538T477 319ZM345 369Q345 504 258 504Q217 504 193 468T169 368Q169 234 257 234Q345 234 345 369Z" />
<glyph unicode=":" glyph-name="colon" horiz-adv-x="296" d="M243 409Q243 369 216 342T148 314Q108 314 81 342T53 410Q53 449 81 476T150 504Q188 504 215 476T243 409ZM243 79Q243 39 216 12T148 -16Q108 -16 81 12T53 80Q53 119 81 146T150 174Q188 174 215
146T243 79Z" />
<glyph unicode=";" glyph-name="semicolon" horiz-adv-x="296" d="M263 409Q263 369 236 342T168 314Q128 314 101 342T73 410Q73 449 101 476T170 504Q208 504 235 476T263 409ZM247 114Q247 108 242 100L123 -124Q116 -138 109 -138Q106 -138 97 -135L59 -122Q43
-117 43 -108Q43 -106 46 -96L108 108Q113 125 131 125H227Q247 125 247 114Z" />
<glyph unicode="&lt;" glyph-name="less" horiz-adv-x="514" d="M501 56L55 285V402L501 630V493L202 343L501 193V56Z" />
<glyph unicode="=" glyph-name="equal" horiz-adv-x="537" d="M496 302Q496 290 492 288T479 285H58Q46 285 44 289T41 302V369Q41 381 45 383T58 386H479Q491 386 493 382T496 369V302ZM497 144Q497 132 493 130T480 127H58Q46 127 44 131T41 144V211Q41 223
45 225T58 228H480Q492 228 494 224T497 211V144Z" />
<glyph unicode="&gt;" glyph-name="greater" horiz-adv-x="514" d="M501 285L55 56V193L354 343L55 493V630L501 402V285Z" />
<glyph unicode="?" glyph-name="question" horiz-adv-x="445" d="M403 521Q403 426 327 376Q299 358 240 338V270Q240 249 220 249H149Q136 249 132 253T128 270V395Q128 412 149 418Q269 450 269 522Q269 591 185 591Q139 591 77 565Q65 560 60 560Q54 560 50
570L24 638Q22 643 22 649Q22 667 86 687T207 708Q296 708 349 657T403 521ZM273 57Q273 23 249 -2T189 -27Q154 -27 129 -2T104 58Q104 93 129 117T190 142Q224 142 248 117T273 57Z" />
<glyph unicode="@" glyph-name="at" horiz-adv-x="1000" d="M920 357Q920 227 840 138T643 49Q563 49 550 118Q500 49 433 49Q341 49 341 168Q341 301 424 387Q465 430 523 430Q570 430 601 396L606 407Q611 418 621 418H688Q700 418 700 408L699 398L653 184Q651
175 651 158Q651 128 686 128Q731 128 769 167Q797 196 815 247T833 351Q833 461 762 524T565 588Q399 588 297 483Q243 427 212 348T181 185Q181 49 266 -30Q344 -102 488 -102Q652 -102 778 -35Q789 -29 797 -29Q803 -29 806 -36L823 -77Q826 -88 826 -89Q826
-96 811 -105Q759 -137 670 -156T487 -176Q295 -176 197 -81Q91 22 91 189Q91 286 130 378T238 535Q373 662 570 662Q748 662 841 566Q920 484 920 357ZM579 334Q556 358 531 358Q502 358 483 320Q470 294 460 247T450 166Q450 127 475 127Q507 127 533 163Q546
182 555 222L579 334Z" />
<glyph unicode="A" glyph-name="A" horiz-adv-x="574" d="M587 17Q587 5 583 3T570 0H354Q342 0 340 4T337 17V79Q337 91 341 93T354 96H391L369 182H194L172 96H210Q222 96 224 92T227 79V17Q227 5 223 3T210 0H4Q-8 0 -10 4T-13 17V79Q-13 91 -9 93T4 96H38L213
669Q217 681 220 683T235 686H339Q351 686 354 684T361 669L532 96H570Q582 96 584 92T587 79V17ZM344 274L302 446Q295 473 289 514L278 585Q270 533 253 446L209 274H344Z" />
<glyph unicode="B" glyph-name="B" horiz-adv-x="574" d="M536 194Q536 144 513 98T453 29Q406 0 288 0H52Q38 0 35 3T31 21V75Q31 89 35 92T52 96H103V590H52Q39 590 35 594T31 611V665Q31 679 34 682T52 686H279Q343 686 368 682Q418 676 449 651Q511 603 511
510Q511 406 411 359Q470 343 503 300T536 194ZM379 497Q379 547 347 571Q326 587 279 587H230V400H269Q325 400 349 419Q379 443 379 497ZM400 202Q400 254 372 276T275 299H230V108H273Q342 108 371 129T400 202Z" />
<glyph unicode="C" glyph-name="C" horiz-adv-x="500" d="M485 41Q485 27 473 20Q411 -17 311 -17Q184 -17 125 49Q41 143 41 340Q41 516 110 609T310 703Q346 703 395 691Q451 676 471 656Q477 649 477 637V502Q477 490 473 488T460 485H385Q375 485 372 488T369
502V581Q342 589 314 589Q252 589 227 556Q182 497 182 364Q182 218 219 149Q247 97 329 97Q354 97 377 102V186Q377 198 381 200T394 203H468Q480 203 482 199T485 186V41Z" />
<glyph unicode="D" glyph-name="D" horiz-adv-x="611" d="M572 344Q572 86 425 21Q379 0 278 0H52Q38 0 35 3T31 21V75Q31 89 35 92T52 96H103V590H52Q39 590 35 594T31 611V665Q31 679 34 682T52 686H281Q377 686 416 673Q572 621 572 344ZM431 345Q431 509 371
555Q339 579 275 579H237V107H275Q364 107 397 158T431 345Z" />
<glyph unicode="E" glyph-name="E" horiz-adv-x="519" d="M472 21Q472 7 469 4T452 0H52Q38 0 35 3T31 21V75Q31 89 35 92T52 96H103V590H52Q39 590 35 594T31 611V665Q31 679 34 682T52 686H452Q464 686 466 682T469 669V512Q469 500 465 498T452 495H383Q371
495 369 499T366 512V579H237V412H407Q421 412 424 409T428 392V326Q428 313 425 309T407 305H237V107H370V182Q370 194 374 196T387 199H456Q472 199 472 182V21Z" />
<glyph unicode="F" glyph-name="F" horiz-adv-x="482" d="M469 512Q469 500 465 498T452 495H383Q371 495 369 499T366 512V579H237V412H407Q421 412 424 409T428 392V326Q428 313 425 309T407 305H237V96H303Q317 96 320 93T324 75V21Q324 7 321 4T303 0H52Q38
0 35 3T31 21V75Q31 89 35 92T52 96H103V590H52Q39 590 35 594T31 611V665Q31 679 34 682T52 686H452Q464 686 466 682T469 669V512Z" />
<glyph unicode="G" glyph-name="G" horiz-adv-x="593" d="M577 281Q577 269 573 267T560 264H508V61Q508 42 492 32Q417 -17 305 -17Q40 -17 40 342Q40 519 108 611T308 703Q406 703 476 660Q492 650 492 634V504Q492 492 488 490T475 487H401Q389 487 387 491T384
504V583Q345 597 316 597Q252 597 223 552Q181 488 181 346Q181 212 213 150Q242 93 315 93Q352 93 387 109V264H312Q299 264 295 268T291 285V339Q291 353 294 356T312 360H560Q572 360 574 356T577 343V281Z" />
<glyph unicode="H" glyph-name="H" horiz-adv-x="667" d="M636 21Q636 8 633 4T615 0H381Q361 0 361 11V85Q361 96 381 96H430V301H237V96H286Q306 96 306 75V21Q306 7 303 4T286 0H52Q38 0 35 3T31 21V75Q31 89 35 92T52 96H103V590H52Q39 590 35 594T31 611V665Q31
679 34 682T52 686H286Q300 686 303 683T306 665V611Q306 590 286 590H237V408H430V590H382Q369 590 365 594T361 611V665Q361 679 365 682T382 686H615Q629 686 632 683T636 665V611Q636 598 633 594T615 590H564V96H615Q629 96 632 93T636 75V21Z" />
<glyph unicode="I" glyph-name="I" horiz-adv-x="352" d="M320 21Q320 8 317 4T299 0H54Q40 0 37 3T33 21V75Q33 89 37 92T54 96H109V590H54Q41 590 37 594T33 611V665Q33 679 36 682T54 686H299Q313 686 316 683T320 665V611Q320 598 317 594T299 590H243V96H299Q313
96 316 93T320 75V21Z" />
<glyph unicode="J" glyph-name="J" horiz-adv-x="445" d="M378 211Q378 91 332 39Q282 -17 186 -17Q98 -17 52 36T5 189Q5 202 14 202H114Q125 202 125 188V175Q125 92 188 92Q223 92 234 117Q244 135 244 192V590H105Q85 590 85 611V665Q85 686 105 686H357Q371
686 374 683T378 665V211Z" />
<glyph unicode="K" glyph-name="K" horiz-adv-x="611" d="M612 17Q612 5 608 3T595 0H483Q468 0 457 15L237 304V96H285Q305 96 305 75V21Q305 7 302 4T285 0H52Q38 0 35 3T31 21V75Q31 89 35 92T52 96H103V590H52Q39 590 35 594T31 611V665Q31 679 34 682T52
686H285Q299 686 302 683T305 665V611Q305 590 285 590H237V382L451 675Q459 686 472 686H583Q595 686 597 682T600 669V607Q600 595 596 593T583 590H536L355 351L561 96H595Q607 96 609 92T612 79V17Z" />
<glyph unicode="L" glyph-name="L" horiz-adv-x="518" d="M512 173Q512 169 510 160L478 18Q474 0 456 0H52Q38 0 35 3T31 21V75Q31 89 35 92T52 96H103V590H52Q39 590 35 594T31 611V665Q31 679 34 682T52 686H291Q305 686 308 683T312 665V611Q312 598 309 594T291
590H237V107H383L401 185Q405 203 413 203Q415 203 429 200L495 186Q512 182 512 173Z" />
<glyph unicode="M" glyph-name="M" horiz-adv-x="741" d="M717 17Q717 5 713 3T700 0H476Q464 0 462 4T459 17V79Q459 91 463 93T476 96H523L519 521Q498 432 479 373L413 167Q409 156 406 154T390 151H333Q321 151 318 153T311 168L254 363Q241 407 216 521L215
483V397L214 360L208 96H255Q267 96 269 92T272 79V17Q272 5 268 3T255 0H41Q29 0 27 4T24 17V79Q24 91 28 93T41 96H91L113 590H61Q49 590 47 594T44 607V669Q44 681 48 683T61 686H234Q251 686 256 670L337 417Q353 365 366 296Q368 306 381 358Q387 384 399
418L486 670Q490 681 493 683T508 686H681Q693 686 695 682T698 669V607Q698 595 694 593T681 590H625L650 96H700Q712 96 714 92T717 79V17Z" />
<glyph unicode="N" glyph-name="N" horiz-adv-x="648" d="M637 611Q637 598 634 594T616 590H565V21Q565 8 562 4T544 0H478Q463 0 455 14L271 356Q231 431 210 492Q214 412 214 363V96H265Q279 96 282 93T286 75V21Q286 8 283 4T265 0H49Q35 0 32 3T28 21V75Q28
89 32 92T49 96H100V590H49Q36 590 32 594T28 611V665Q28 679 31 682T49 686H203Q219 686 226 672L392 362Q433 286 454 217Q451 291 451 347V590H400Q387 590 383 594T379 611V665Q379 679 383 682T400 686H616Q630 686 633 683T637 665V611Z" />
<glyph unicode="O" glyph-name="O" horiz-adv-x="574" d="M535 351Q535 -17 284 -17Q40 -17 40 346Q40 556 128 641Q192 703 292 703Q399 703 461 632Q535 547 535 351ZM394 341Q394 597 286 597Q181 597 181 342Q181 89 287 89Q394 89 394 341Z" />
<glyph unicode="P" glyph-name="P" horiz-adv-x="537" d="M519 498Q519 396 457 335T291 274H237V96H304Q324 96 324 75V21Q324 7 321 4T304 0H52Q38 0 35 3T31 21V75Q31 89 35 92T52 96H103V590H52Q39 590 35 594T31 611V665Q31 679 34 682T52 686H286Q396 686
443 658Q519 613 519 498ZM389 490Q389 544 365 565T279 586H237V385H269Q335 385 362 408T389 490Z" />
<glyph unicode="Q" glyph-name="Q" horiz-adv-x="574" d="M566 -19Q566 -22 562 -26L484 -81Q480 -83 475 -83Q447 -83 372 -3Q334 -17 288 -17Q40 -17 40 347Q40 552 126 641Q186 703 286 703Q535 703 535 357Q535 147 466 62Q500 31 554 -5Q566 -13 566 -19ZM394
342Q394 597 286 597Q181 597 181 340Q181 89 287 89Q394 89 394 342Z" />
<glyph unicode="R" glyph-name="R" horiz-adv-x="574" d="M594 17Q594 5 590 3T577 0H445Q433 0 430 1T422 14L287 283H233V96H287Q301 96 304 93T308 75V21Q308 7 305 4T287 0H52Q38 0 35 3T31 21V75Q31 89 35 92T52 96H103V590H52Q39 590 35 594T31 611V665Q31
679 34 682T52 686H287Q388 686 434 660Q520 612 520 492Q520 424 494 381T406 307L527 96H577Q589 96 591 92T594 79V17ZM386 490Q386 544 362 565T275 586H233V383H265Q332 383 359 407T386 490Z" />
<glyph unicode="S" glyph-name="S" horiz-adv-x="500" d="M462 194Q462 102 403 44T247 -14Q200 -14 144 -2T56 26Q41 34 41 51V202Q41 214 45 216T58 219H132Q144 219 146 215T149 202V118Q205 98 243 98Q334 98 334 183Q334 220 312 242Q293 261 196 307Q113
346 85 376Q42 421 42 499Q42 592 101 646T261 700Q357 700 426 661Q441 653 441 637V501Q441 489 437 487T424 484H350Q338 484 336 488T333 501V579Q294 591 266 591Q172 591 172 516Q172 488 189 471T261 426Q377 368 408 334Q462 275 462 194Z" />
<glyph unicode="T" glyph-name="T" horiz-adv-x="463" d="M468 481Q468 469 464 467T451 464H392Q380 464 378 468T375 481V578H302V96H370Q390 96 390 75V21Q390 7 387 4T370 0H99Q85 0 82 3T79 21V75Q79 96 99 96H168V578H94V481Q94 469 90 467T77 464H18Q6
464 4 468T1 481V669Q1 681 5 683T18 686H451Q463 686 465 682T468 669V481Z" />
<glyph unicode="U" glyph-name="U" horiz-adv-x="667" d="M648 611Q648 590 628 590H576V232Q576 164 563 124T515 50Q447 -17 324 -17Q190 -17 133 62Q94 116 94 232V590H43Q30 590 26 594T22 611V665Q22 679 25 682T43 686H280Q300 686 300 665V611Q300 590
280 590H228V232Q228 149 252 122Q280 91 333 91Q394 91 420 123T447 230V590H396Q383 590 379 594T375 611V665Q375 679 379 682T396 686H628Q642 686 645 683T648 665V611Z" />
<glyph unicode="V" glyph-name="V" horiz-adv-x="537" d="M566 607Q566 595 562 593T549 590H509L344 3Q339 -14 321 -14H209Q197 -14 194 -12T187 3L27 590H-12Q-24 590 -26 594T-29 607V669Q-29 681 -25 683T-12 686H134Q149 686 152 672L240 272Q244 253 252
207Q257 178 266 119Q283 215 297 272L394 672Q397 686 412 686H549Q561 686 563 682T566 669V607Z" />
<glyph unicode="W" glyph-name="W" horiz-adv-x="778" d="M799 607Q799 595 795 593T782 590H745L611 6Q607 -12 589 -12H503Q491 -12 488 -9T482 7L415 345Q395 444 391 518Q381 421 363 344L284 6Q281 -7 278 -9T262 -12H176Q163 -12 160 -10T154 6L33 590H-3Q-15
590 -17 594T-20 607V669Q-20 681 -16 683T-3 686H129Q143 686 146 671L208 342Q215 303 224 210L228 167L233 196L239 238Q246 287 253 317L334 665Q337 680 340 683T356 686H433Q446 686 449 683T455 665L525 350Q537 297 554 162Q565 278 578 350L638 671Q641
686 656 686H782Q794 686 796 682T799 669V607Z" />
<glyph unicode="X" glyph-name="X" horiz-adv-x="556" d="M566 17Q566 5 562 3T550 0H418Q406 0 403 1T395 14L309 181Q294 211 278 250Q270 229 247 181L158 14Q151 0 135 0H0Q-12 0 -14 4T-17 17V79Q-17 91 -13 93T0 96H53L206 363L71 590H16Q4 590 2 594T-1
607V669Q-1 681 3 683T16 686H154Q165 686 168 685T176 672L247 534Q262 505 279 456Q296 509 308 535L372 671Q379 686 395 686H533Q545 686 547 682T550 669V607Q550 595 546 593T533 590H476L348 361L501 96H550Q560 96 563 93T566 79V17Z" />
<glyph unicode="Y" glyph-name="Y" horiz-adv-x="500" d="M522 607Q522 595 518 593T505 590H475L321 281V96H389Q403 96 406 93T410 75V21Q410 8 407 4T389 0H119Q105 0 102 3T98 21V75Q98 89 102 92T119 96H187V282L28 590H2Q-10 590 -12 594T-15 607V669Q-15
681 -11 683T2 686H116Q128 686 131 684T139 671L216 511Q229 484 258 397Q278 467 303 518L377 672Q382 682 385 684T400 686H505Q517 686 519 682T522 669V607Z" />
<glyph unicode="Z" glyph-name="Z" horiz-adv-x="500" d="M486 173Q486 170 484 161L452 18Q449 5 446 3T429 0H52Q40 0 38 4T35 17V100L314 580H149V497Q149 485 145 483T132 480H61Q49 480 47 484T44 497V669Q44 681 48 683T61 686H432Q446 686 449 683T453
665V575L178 111H358L375 189Q378 203 387 203Q390 203 399 201L472 185Q486 182 486 173Z" />
<glyph unicode="[" glyph-name="bracketleft" horiz-adv-x="444" d="M387 -184Q387 -198 384 -201T367 -205H171Q158 -205 154 -202T150 -184V694Q150 708 153 711T171 715H367Q387 715 387 694V633Q387 612 367 612H277V-102H367Q387 -102 387 -123V-184Z" />
<glyph unicode="\" glyph-name="backslash" horiz-adv-x="445" d="M473 -251Q473 -263 455 -263H396Q376 -263 370 -245L43 722Q40 731 40 733Q40 746 60 746H118Q139 746 145 728L470 -238Q473 -247 473 -251Z" />
<glyph unicode="]" glyph-name="bracketright" horiz-adv-x="444" d="M295 -184Q295 -198 292 -201T274 -205H78Q64 -205 61 -202T57 -184V-123Q57 -110 61 -106T78 -102H168V612H78Q64 612 61 615T57 633V694Q57 708 60 711T78 715H274Q288 715 291 712T295 694V-184Z" />
<glyph unicode="^" glyph-name="asciicircum" horiz-adv-x="514" d="M516 366H393L278 596L163 366H40L201 689H355L516 366Z" />
<glyph unicode="_" glyph-name="underscore" horiz-adv-x="514" d="M514 -143H0V-64H514V-143Z" />
<glyph unicode="`" glyph-name="grave" horiz-adv-x="500" d="M301 609Q301 605 296 595L281 564Q274 549 267 549Q264 549 254 553L77 623Q61 629 61 637Q61 641 66 651L97 711Q104 725 111 725Q117 725 125 720L288 623Q301 615 301 609Z" />
<glyph unicode="a" glyph-name="a" horiz-adv-x="500" d="M483 14Q483 0 469 0H343Q328 0 321 14Q319 18 313 43Q256 -14 184 -14Q115 -14 75 27T34 138Q34 270 183 299Q216 306 295 307V338Q295 381 280 397T225 413Q180 413 111 386Q103 384 100 384Q93 384
90 394L70 452Q67 461 67 465Q67 481 124 496T243 511Q344 511 387 456Q414 421 414 351V177Q414 132 424 93H469Q483 93 483 79V14ZM295 114V224Q227 223 204 214Q155 196 155 144Q155 115 173 95T219 75Q259 75 295 114Z" />
<glyph unicode="b" glyph-name="b" horiz-adv-x="537" d="M505 260Q505 128 448 56T298 -17Q238 -17 191 27Q176 -14 162 -14Q156 -14 148 -12L67 8Q57 10 57 16Q57 19 60 25Q80 67 80 130V624H25Q11 624 11 638V703Q11 717 25 717H193Q207 717 207 703V467Q271
511 331 511Q505 511 505 260ZM378 254Q378 325 360 364Q339 410 288 410Q252 410 207 378V101Q235 80 269 80Q378 80 378 254Z" />
<glyph unicode="c" glyph-name="c" horiz-adv-x="407" d="M393 24Q393 9 348 -4T253 -17Q147 -17 90 49T32 237Q32 366 94 438T266 511Q291 511 329 504Q374 495 387 483Q391 479 391 468V333Q391 319 377 319H303Q289 319 289 333V408Q279 410 265 410Q164 410
164 242Q164 159 188 122T268 84Q307 84 347 102Q354 105 357 105Q362 105 364 100L390 34Q393 26 393 24Z" />
<glyph unicode="d" glyph-name="d" horiz-adv-x="537" d="M523 14Q523 0 509 0H374Q361 0 357 5T345 37Q277 -17 205 -17Q128 -17 88 34Q33 104 33 238Q33 380 92 451Q142 511 225 511Q280 511 327 483V624H273Q259 624 259 638V703Q259 717 273 717H440Q454 717
454 703V177Q454 127 464 93H509Q523 93 523 79V14ZM327 116V392Q292 410 253 410Q200 410 180 375T160 245Q160 155 178 119T243 82Q292 82 327 116Z" />
<glyph unicode="e" glyph-name="e" horiz-adv-x="482" d="M450 237Q450 213 428 213H159Q162 87 270 87Q326 87 384 118Q391 122 397 122Q404 122 408 113L433 53Q436 46 436 42Q436 29 395 11Q330 -17 257 -17Q162 -17 108 32Q33 101 33 243Q33 364 93 437T252
511Q450 511 450 237ZM317 306Q316 368 299 394T244 420Q200 420 180 383Q167 358 161 306H317Z" />
<glyph unicode="f" glyph-name="f" horiz-adv-x="371" d="M397 688Q397 688 395 680L377 609Q373 600 368 600Q365 600 358 603Q326 617 298 617Q256 617 246 586Q242 574 242 536V494H356Q373 494 373 484Q373 482 371 474L357 416Q353 401 338 401H242V93H317Q331
93 331 79V14Q331 0 317 0H46Q32 0 32 14V79Q32 93 46 93H115V401H39Q26 401 24 404T22 425V480Q22 494 39 494H115V536Q115 636 158 680T275 724Q321 724 359 713T397 688Z" />
<glyph unicode="g" glyph-name="g" horiz-adv-x="518" d="M473 474Q473 470 467 456Q445 403 445 343V195Q445 105 448 32Q450 -17 450 -30Q450 -209 257 -209Q190 -209 120 -191T50 -154Q50 -148 52 -144L73 -75Q75 -65 83 -65Q86 -65 93 -68Q174 -105 246 -105Q292
-105 309 -87T327 -20Q327 -27 325 43Q270 6 203 6Q122 6 77 70T32 249Q32 372 82 441T221 511Q286 511 340 465Q361 514 375 514Q383 514 385 512L464 484Q473 480 473 474ZM322 141V377Q284 406 247 406Q159 406 159 254Q159 182 180 142Q199 107 239 107Q289
107 322 141Z" />
<glyph unicode="h" glyph-name="h" horiz-adv-x="574" d="M550 14Q550 0 536 0H375Q358 0 358 17V325Q358 371 346 390T303 409Q262 409 217 368V93H268Q282 93 282 79V14Q282 0 268 0H39Q25 0 25 14V79Q25 93 39 93H90V624H35Q21 624 21 638V703Q21 717 35 717H203Q217
717 217 703V453Q276 511 354 511Q433 511 465 457Q485 423 485 354V93H536Q550 93 550 79V14Z" />
<glyph unicode="i" glyph-name="i" horiz-adv-x="315" d="M253 642Q253 608 229 584T170 559Q136 559 112 583T88 642Q88 676 112 700T172 724Q205 724 229 700T253 642ZM314 14Q314 0 300 0H43Q29 0 29 14V79Q29 93 43 93H108V401H46Q29 401 29 418V477Q29 494
46 494H218Q235 494 235 477V93H300Q314 93 314 79V14Z" />
<glyph unicode="j" glyph-name="j" horiz-adv-x="296" d="M245 642Q245 608 221 584T163 559Q129 559 105 583T80 642Q80 676 104 700T164 724Q197 724 221 700T245 642ZM229 10Q229 -117 206 -162Q169 -236 58 -236Q16 -236 -18 -228T-53 -208Q-53 -205 -51 -198L-29
-123Q-27 -116 -20 -116Q-20 -116 -12 -118Q17 -131 44 -131Q88 -131 98 -82Q102 -63 102 10V401H26Q9 401 9 418V477Q9 494 26 494H212Q229 494 229 477V10Z" />
<glyph unicode="k" glyph-name="k" horiz-adv-x="556" d="M546 14Q546 0 533 0H409Q396 0 389 10L217 244V93H263Q277 93 277 79V14Q277 0 263 0H39Q25 0 25 14V79Q25 93 39 93H90V624H35Q21 624 21 638V703Q21 717 35 717H203Q217 717 217 703V297L344 404H299Q285
404 285 418V480Q285 494 299 494H521Q535 494 535 480V415Q535 401 521 401H469L327 281L483 93H533Q546 93 546 79V14Z" />
<glyph unicode="l" glyph-name="l" horiz-adv-x="296" d="M297 11Q297 1 265 -8T197 -17Q114 -17 87 42Q73 72 73 176V624H18Q4 624 4 638V703Q4 717 18 717H186Q200 717 200 703V185Q200 132 202 122Q207 100 227 100Q234 100 247 103T267 107Q274 107 275 101L296
15Q297 13 297 11Z" />
<glyph unicode="m" glyph-name="m" horiz-adv-x="833" d="M809 14Q809 0 792 0H636Q619 0 619 17V334Q619 375 609 391T573 408Q534 408 488 366V93H540Q554 93 554 76V14Q554 0 540 0H380Q363 0 363 17V324Q363 365 358 380Q349 408 318 408Q283 408 234 366V93H285Q299
93 299 79V14Q299 0 285 0H57Q43 0 43 14V79Q43 93 57 93H108V316Q108 365 98 401H50Q36 401 36 415V480Q36 494 50 494H189Q203 494 208 485T222 441Q296 511 368 511Q445 511 477 441Q552 511 631 511Q704 511 730 454Q744 422 744 346V93H795Q809 93 809 79V14Z"
/>
<glyph unicode="n" glyph-name="n" horiz-adv-x="593" d="M569 14Q569 0 555 0H393Q376 0 376 17V325Q376 408 321 408Q280 408 235 367V93H286Q300 93 300 79V14Q300 0 286 0H57Q43 0 43 14V79Q43 93 57 93H108V316Q108 365 98 401H50Q36 401 36 415V480Q36 494
50 494H189Q202 494 207 485T221 442Q297 511 374 511Q503 511 503 353V93H555Q569 93 569 79V14Z" />
<glyph unicode="o" glyph-name="o" horiz-adv-x="500" d="M468 248Q468 126 410 55T251 -17Q148 -17 91 53T33 247Q33 369 91 438Q152 511 255 511Q353 511 410 440T468 248ZM333 246Q333 334 314 372T249 410Q206 410 187 372T168 247Q168 160 187 122T250 84Q294
84 313 122T333 246Z" />
<glyph unicode="p" glyph-name="p" horiz-adv-x="537" d="M504 255Q504 -17 320 -17Q265 -17 217 9V-109H271Q285 -109 285 -123V-188Q285 -202 271 -202H39Q25 -202 25 -188V-123Q25 -109 39 -109H90V316Q90 367 80 401H32Q18 401 18 415V480Q18 494 32 494H171Q183
494 187 489T198 461Q269 511 330 511Q504 511 504 255ZM377 251Q377 410 296 410Q257 410 217 373V98Q252 79 287 79Q335 79 352 107Q377 147 377 251Z" />
<glyph unicode="q" glyph-name="q" horiz-adv-x="518" d="M517 -188Q517 -202 503 -202H270Q256 -202 256 -188V-123Q256 -109 270 -109H325V22Q276 -17 210 -17Q33 -17 33 240Q33 368 82 439T220 511Q289 511 342 465Q366 513 380 513Q387 513 395 510L468 484Q480
481 480 473Q480 467 476 460Q452 411 452 343V-109H503Q517 -109 517 -126V-188ZM325 118V373Q290 403 248 403Q201 403 181 364T160 236Q160 79 245 79Q290 79 325 118Z" />
<glyph unicode="r" glyph-name="r" horiz-adv-x="389" d="M398 488Q398 482 396 478L366 397Q363 388 357 388Q354 388 351 390Q329 398 310 398Q280 398 235 350V93H289Q303 93 303 79V14Q303 0 289 0H57Q43 0 43 14V79Q43 93 57 93H108V317Q108 365 98 401H49Q36
394 36 415V480Q36 494 50 494H180Q197 494 207 471Q208 468 217 433Q257 480 281 495T341 511Q363 511 380 504T398 488Z" />
<glyph unicode="s" glyph-name="s" horiz-adv-x="426" d="M393 145Q393 77 348 30T223 -17Q141 -17 61 20Q46 27 46 41V150Q46 164 60 164H128Q142 164 142 147V95Q188 81 212 81Q274 81 274 133Q274 155 260 167T197 197Q113 229 90 250Q50 287 50 348Q50 419
99 465T226 511Q253 511 296 503Q346 494 360 481Q366 476 366 466V362Q366 348 352 348H284Q270 348 270 362V412Q242 416 231 416Q167 416 167 365Q167 341 189 326Q197 321 234 307Q324 273 351 247Q393 207 393 145Z" />
<glyph unicode="t" glyph-name="t" horiz-adv-x="333" d="M345 22Q345 10 314 0Q261 -17 214 -17Q126 -17 93 46Q78 75 78 140V401H9Q-8 401 -8 418V477Q-8 494 9 494H78V620Q78 636 94 638L186 651H195Q205 651 205 635V494H319Q336 494 336 484Q336 478 335
475L322 416Q319 401 304 401H205V158Q205 119 211 109Q220 94 242 94Q265 94 308 111Q313 113 317 113Q324 113 327 103L343 33Q345 24 345 22Z" />
<glyph unicode="u" glyph-name="u" horiz-adv-x="574" d="M550 14Q550 0 536 0H402Q389 0 384 7T372 44Q335 9 305 -4T232 -17Q129 -17 100 62Q89 92 89 178V401H38Q24 401 24 415V480Q24 494 38 494H200Q216 494 216 478V184Q216 128 225 111Q239 84 274 84Q314
84 354 121V401H302Q289 401 289 415V480Q289 494 302 494H465Q481 494 481 478V177Q481 128 491 93H536Q550 93 550 79V14Z" />
<glyph unicode="v" glyph-name="v" horiz-adv-x="463" d="M480 415Q480 401 466 401H432L291 -6Q286 -19 272 -19H189Q174 -19 170 -6L30 401H-3Q-17 401 -17 415V480Q-17 494 -3 494H121Q136 494 140 480L203 258Q217 207 235 113Q256 214 270 258L338 480Q342
494 357 494H466Q480 494 480 480V415Z" />
<glyph unicode="w" glyph-name="w" horiz-adv-x="685" d="M693 415Q693 401 679 401H645L527 6Q523 -8 508 -8H425Q410 -8 407 8L360 261Q352 307 348 349L346 373Q337 304 327 259L269 7Q266 -8 250 -8H169Q154 -8 150 7L48 401H16Q2 401 2 415V480Q2 494 16
494H134Q149 494 152 479L198 258Q209 206 218 101Q230 206 238 245L286 479Q289 494 305 494H394Q410 494 413 479L457 254Q465 213 477 101Q489 221 500 267L549 479Q552 494 567 494H679Q693 494 693 480V415Z" />
<glyph unicode="x" glyph-name="x" horiz-adv-x="482" d="M475 14Q475 0 460 0H359Q345 0 337 12L278 102Q261 127 240 163Q222 132 202 102L141 12Q133 0 118 0H19Q6 0 6 14V79Q6 93 19 93H55L168 249L64 401H25Q11 401 11 418V480Q11 494 25 494H129Q143 494
151 481L202 398Q206 392 213 380Q217 372 221 365T237 336Q252 361 278 398L336 482Q344 494 358 494H456Q470 494 470 480V415Q470 401 456 401H422L313 249L422 93H460Q475 93 475 79V14Z" />
<glyph unicode="y" glyph-name="y" horiz-adv-x="463" d="M487 415Q487 401 473 401H438L357 104Q334 19 313 -60Q288 -155 245 -190Q206 -222 144 -222Q101 -222 54 -206T7 -175Q7 -170 11 -164L42 -100Q45 -93 51 -93Q53 -93 59 -96Q103 -118 135 -118Q167 -118
183 -102T213 -42L226 0H184Q169 0 165 13L31 401H-1Q-15 401 -15 415V480Q-15 494 -1 494H125Q139 494 143 480L208 241Q224 183 246 68Q248 80 252 105T267 183Q271 200 280 241L334 479Q337 494 353 494H473Q487 494 487 480V415Z" />
<glyph unicode="z" glyph-name="z" horiz-adv-x="445" d="M434 126Q434 122 431 115L387 13Q381 0 368 0H48Q31 0 31 17V85L262 391H145V350Q145 336 131 336H66Q52 336 52 350V480Q52 494 66 494H384Q396 494 398 490T401 477V406L174 105H319L341 158Q344 166
351 166Q355 166 362 163L425 136Q434 132 434 126Z" />
<glyph unicode="{" glyph-name="braceleft" horiz-adv-x="445" d="M389 -184Q389 -197 386 -201T372 -205Q270 -205 221 -160T172 -21V140Q172 211 102 211H85Q64 211 64 231V300Q64 314 67 317T85 320H102Q172 320 172 391V531Q172 715 371 715Q384 715 386 710T389
695V630Q389 617 386 614T368 610H364Q296 610 296 540V386Q296 338 281 312T224 266Q265 246 280 220T296 145V-30Q296 -99 364 -99H368Q382 -99 385 -103T389 -120V-184Z" />
<glyph unicode="|" glyph-name="bar" horiz-adv-x="514" d="M347 -171H208V686H347V-171Z" />
<glyph unicode="}" glyph-name="braceright" horiz-adv-x="445" d="M381 211Q381 198 378 194T360 190H343Q305 190 289 174T273 119V-21Q273 -205 74 -205Q61 -205 58 -198Q56 -194 56 -185V-120Q56 -106 59 -103T77 -100H81Q149 -100 149 -30V124Q149 172 164
198T221 245Q180 265 165 291T149 366V541Q149 610 81 610H77Q63 610 60 613T56 631V695Q56 708 59 712T73 716Q175 716 224 671T273 532V371Q273 333 289 317T343 300H360Q374 300 377 297T381 279V211Z" />
<glyph unicode="~" glyph-name="asciitilde" horiz-adv-x="686" d="M612 712Q553 576 463 576Q433 576 355 610Q284 641 261 641Q222 641 184 574L116 631Q173 766 265 766Q300 766 379 731Q443 702 467 702Q507 702 544 768L612 712Z" />
</font>
</defs>
</svg>
